<svg xmlns="http://www.w3.org/2000/svg" viewBox="0 0 100 100">
  <defs>
    <linearGradient id="g" x1="0%" y1="0%" x2="100%" y2="100%">
      <stop offset="0%" style="stop-color:#5B8DEF"/>
      <stop offset="50%" style="stop-color:#4A7FE0"/>
      <stop offset="100%" style="stop-color:#6C5CE7"/>
    </linearGradient>
    <linearGradient id="flame" x1="0%" y1="0%" x2="0%" y2="100%">
      <stop offset="0%" style="stop-color:#FFD93D"/>
      <stop offset="100%" style="stop-color:#FF6B6B"/>
    </linearGradient>
  </defs>

  <!-- Background square with rounded corners -->
  <rect x="5" y="5" width="90" height="90" rx="22" ry="22" fill="url(#g)"/>

  <!-- Rocket body -->
  <path d="M50 18 C42 18 36 28 36 42 C36 52 38 62 42 70 L50 76 L58 70 C62 62 64 52 64 42 C64 28 58 18 50 18Z" fill="white" opacity="0.95"/>

  <!-- Rocket nose cone -->
  <path d="M50 18 C46 18 43 24 42 32 L50 32 L58 32 C57 24 54 18 50 18Z" fill="white" opacity="0.7"/>

  <!-- Rocket window -->
  <circle cx="50" cy="42" r="7" fill="url(#g)"/>
  <circle cx="48" cy="40" r="2.5" fill="white" opacity="0.5"/>

  <!-- Left fin -->
  <path d="M36 58 L28 68 L38 64Z" fill="white" opacity="0.75"/>

  <!-- Right fin -->
  <path d="M64 58 L72 68 L62 64Z" fill="white" opacity="0.75"/>

  <!-- Flame -->
  <ellipse cx="50" cy="77" rx="6" ry="9" fill="url(#flame)" opacity="0.9"/>
  <ellipse cx="50" cy="75" rx="3.5" ry="5" fill="#FFF3B0" opacity="0.8"/>
</svg>
